<?xml version="1.0" encoding="UTF-8" standalone="no"?>
<!-- Created with Inkscape (http://www.inkscape.org/) -->
<svg
   xmlns:dc="http://purl.org/dc/elements/1.1/"
   xmlns:cc="http://creativecommons.org/ns#"
   xmlns:rdf="http://www.w3.org/1999/02/22-rdf-syntax-ns#"
   xmlns:svg="http://www.w3.org/2000/svg"
   xmlns="http://www.w3.org/2000/svg"
   xmlns:sodipodi="http://sodipodi.sourceforge.net/DTD/sodipodi-0.dtd"
   xmlns:inkscape="http://www.inkscape.org/namespaces/inkscape"
   width="770.03467"
   height="1097.4629"
   id="svg2"
   sodipodi:version="0.32"
   inkscape:version="0.46"
   version="1.0"
   sodipodi:docname="lop.svg"
   inkscape:output_extension="org.inkscape.output.svg.inkscape">
  <defs
     id="defs4">
    <inkscape:perspective
       sodipodi:type="inkscape:persp3d"
       inkscape:vp_x="0 : 526.18109 : 1"
       inkscape:vp_y="0 : 1000 : 0"
       inkscape:vp_z="744.09448 : 526.18109 : 1"
       inkscape:persp3d-origin="372.04724 : 350.78739 : 1"
       id="perspective10" />
    <inkscape:perspective
       id="perspective2464"
       inkscape:persp3d-origin="372.04724 : 350.78739 : 1"
       inkscape:vp_z="744.09448 : 526.18109 : 1"
       inkscape:vp_y="0 : 1000 : 0"
       inkscape:vp_x="0 : 526.18109 : 1"
       sodipodi:type="inkscape:persp3d" />
  </defs>
  <sodipodi:namedview
     id="base"
     pagecolor="#ffffff"
     bordercolor="#666666"
     borderopacity="1.0"
     gridtolerance="10000"
     guidetolerance="10"
     objecttolerance="10"
     inkscape:pageopacity="0.0"
     inkscape:pageshadow="2"
     inkscape:zoom="0.35"
     inkscape:cx="454.09392"
     inkscape:cy="514.5016"
     inkscape:document-units="px"
     inkscape:current-layer="layer1"
     showgrid="false"
     inkscape:window-width="1280"
     inkscape:window-height="746"
     inkscape:window-x="0"
     inkscape:window-y="32" />
  <metadata
     id="metadata7">
    <rdf:RDF>
      <cc:Work
         rdf:about="">
        <dc:format>image/svg+xml</dc:format>
        <dc:type
           rdf:resource="http://purl.org/dc/dcmitype/StillImage" />
      </cc:Work>
    </rdf:RDF>
  </metadata>
  <g
     inkscape:label="Layer 1"
     inkscape:groupmode="layer"
     id="layer1"
     transform="translate(29.711575,61.499493)">
    <path
       style="fill:#f4f1d7;fill-opacity:1;fill-rule:evenodd;stroke:#3b3310;stroke-width:7;stroke-linecap:butt;stroke-linejoin:miter;stroke-miterlimit:4;stroke-dasharray:none;stroke-opacity:1"
       d="M 374.7666,942.25555 C 382.12315,967.85349 376.51792,995.18505 372.74628,1021.0475 C 383.79449,1030.9084 402.83869,1025.2147 417.02268,1024.6149 C 435.17146,1018.9797 457.09658,1016.8568 471.17841,1003.6427 C 488.63582,980.91293 499.40932,954.92871 506.97454,927.46937 C 511.58278,919.38052 518.26201,875.57321 514.16129,899.25602 C 506.7347,933.26214 496.53651,967.7409 476.75124,996.50106 C 471.10143,1010.6278 503.69597,1004.3832 515.03309,1004.92 C 550.12211,993.68551 577.86676,967.8182 612.58382,955.30807 C 626.97817,950.76327 647.37787,942.02607 634.08135,924.91205 C 622.63453,911.81484 613.52315,896.77525 607.10168,880.63623 C 619.24888,868.35013 644.22995,873.47456 650.53827,853.36212 C 655.01288,835.38243 666.3724,821.34086 680.21958,809.82934 C 698.86071,785.30005 727.61024,764.15354 726.2019,730.07473 C 728.67341,713.93569 718.4213,697.30762 729.65109,682.33726 C 749.80661,648.81671 722.1336,613.88356 711.95606,582.03689 C 690.93049,518.69373 687.00137,451.091 672.72233,386.22279 C 658.7832,346.12734 634.94254,311.16001 614.17273,274.54471 C 599.61499,232.95437 597.56232,187.26836 574.78369,148.4922 C 563.55691,134.78388 560.63395,125.86858 565.22148,111.80155 C 549.46081,80.395087 550.9835,40.026267 522.90383,15.041029 C 506.72084,-2.5435007 487.49628,-16.664079 465.68033,-26.480736 C 455.19316,-43.025554 431.46685,-49.563231 412.52098,-48.296135 C 395.14698,-45.596129 376.90032,-41.490088 361.81341,-52.972989 C 346.28305,-65.899714 328.82123,-49.138795 311.47453,-54.765007 C 293.28477,-57.197327 286.04133,-36.433019 268.83801,-34.616931 C 232.18336,-21.82518 200.48469,6.4288393 183.02732,41.140537 C 167.32931,59.196485 147.21556,74.137632 136.22113,95.305431 C 102.87377,118.8529 66.271315,142.18057 50.216946,181.6819 C 36.149261,208.65135 23.13981,237.13239 20.607538,267.53964 C 9.7626627,304.17311 -10.799311,337.19802 -16.180167,375.49163 C -20.96166,402.63424 -30.274053,430.99301 -24.243662,458.39249 C -10.013644,481.22133 24.783086,474.2473 41.921099,459.20872 C 52.143936,440.95032 70.394593,427.15042 75.63824,406.99791 C 96.109812,386.68758 104.90381,357.77059 126.99192,338.62548 C 130.80689,340.08514 127.72499,367.04137 128.87566,378.20918 C 124.22699,412.66176 119.56559,447.05364 116.16754,481.62598 C 122.39763,512.38606 92.595624,530.99087 80.416252,555.63173 C 70.675277,569.86921 67.472124,588.14861 64.08068,604.48058 C 62.989903,627.93639 77.092264,648.67589 76.701866,672.45723 C 80.22935,687.99385 65.707549,711.47413 88.011207,717.56058 C 105.38614,731.40384 100.71466,757.66725 94.954338,776.59052 C 83.839554,794.10006 106.1262,800.74106 98.994949,819.01697 C 103.918,830.62524 108.14669,834.21502 111.04806,839.24749 C 128.97791,830.63109 127.502,860.38986 138.7352,860.50791 C 128.61715,869.72987 108.31845,870.16074 103.22671,884.32252 C 102.08594,899.48164 115.84124,914.55011 98.022537,922.53271 C 86.518465,947.14985 88.136802,981.07741 108.08632,1000.8444 C 142.26983,1009.2773 172.53744,986.46253 196.97975,965.48907 C 212.50295,972.31156 231.60487,972.11346 243.44676,986.70227 C 269.18929,1018.3688 312.4558,1026.1345 350.08087,1032.4634 C 366.42343,1029.3393 377.65216,1013.9606 376.61213,997.4347 C 385.36313,959.71716 369.50133,921.10773 351.09201,889.10152 C 349.1095,835.85563 366.86415,784.32976 366.68536,731.13367 C 368.24443,762.17819 370.48107,794.09417 387.51048,821.07145 C 392.56317,848.84225 375.3708,875.19628 372.74628,902.85962 C 365.18376,916.96543 367.77287,928.56624 374.7666,942.25555 z"
       id="path2470" />
    <path
       style="fill:none;fill-rule:evenodd;stroke:#3b3310;stroke-width:7;stroke-linecap:butt;stroke-linejoin:miter;stroke-miterlimit:4;stroke-dasharray:none;stroke-opacity:1"
       d="M 125.25892,400.81378 C 126.47158,453.95341 126.33461,507.29988 128.50309,560.29181 C 134.51646,607.00276 147.63538,652.59496 168.69548,694.76819 C 183.3908,741.31772 208.25839,784.04373 218.08204,832.18576 C 229.93859,879.23848 237.15553,927.82 238.96508,976.21666 L 238.52402,978.86307 L 238.396,979.63123"
       id="path2472" />
    <path
       style="fill:#3b3310;fill-opacity:1;fill-rule:evenodd;stroke:#3b3310;stroke-width:7;stroke-linecap:butt;stroke-linejoin:miter;stroke-miterlimit:4;stroke-dasharray:none;stroke-opacity:1"
       d="M 367.69553,735.17426 C 366.73043,787.81679 347.9938,839.72112 351.80075,892.08666 C 358.56007,900.74418 370.0561,937.39064 371.10534,909.86449 C 374.29121,880.1739 391.77521,852.56804 388.06031,822.53265 C 376.34147,794.29834 366.11736,766.4023 367.69553,735.17426 z"
       id="path2474" />
    <path
       style="fill:#d3b05f;fill-opacity:1;fill-rule:evenodd;stroke:none;stroke-width:7;stroke-linecap:butt;stroke-linejoin:miter;stroke-miterlimit:4;stroke-dasharray:none;stroke-opacity:1"
       d="M 428.30469,3.8238406 C 445.26859,23.248316 461.43908,46.313498 456.58896,73.524368 C 456.3062,99.00203 453.66422,125.35442 456.37338,150.29842 C 473.30954,199.11654 496.52766,246.30906 502.6013,298.1984 C 505.40027,327.70242 510.87444,356.53675 523.25903,383.6412 C 524.19455,421.42373 546.26709,454.64958 563.02529,487.3483 C 571.66284,505.69649 586.59645,517.98135 604.33506,527.12149 C 616.36175,533.0295 637.38139,519.18624 637.48361,504.9658 C 644.36961,458.31637 611.32835,416.70423 613.0714,370.02729 C 613.11449,335.47699 614.86333,300.39183 609.16455,266.01719 C 598.72453,219.15174 591.7069,169.70745 562.47199,129.92054 C 567.04177,118.88856 564.26596,105.72334 556.59406,93.727417 C 548.52762,55.266694 534.28733,14.745303 499.33937,-7.180111 C 484.25777,-21.157292 460.82305,-21.971992 450.52805,-41.633022 C 428.02518,-47.627931 400.72682,-51.323601 380.50655,-39.303599 C 374.9657,-22.867976 392.65898,-15.967951 366.99461,-14.286752 C 351.15919,-14.956966 328.16288,3.7149641 356.85125,1.4314489 C 371.93557,4.6279424 392.93592,-0.10497508 403.91133,10.371085 C 421.04566,22.484519 398.13012,39.290719 413.42115,49.028625 C 421.25658,63.062337 443.76501,61.737691 445.47726,79.585281 C 464.54124,67.556264 439.22575,54.616183 436.59025,40.734285 C 428.16197,26.379026 441.03049,15.592672 428.30469,3.8238406 z"
       id="path2476" />
    <path
       style="fill:none;fill-rule:evenodd;stroke:#3b3310;stroke-width:7;stroke-linecap:butt;stroke-linejoin:miter;stroke-miterlimit:4;stroke-dasharray:none;stroke-opacity:1"
       d="M 455.5788,87.666504 C 457.5747,115.68818 449.35608,145.09798 463.67707,170.87742 C 486.24358,221.58981 501.39181,275.32776 506.39577,330.68812 C 507.75023,357.42957 529.31743,379.38939 524.26917,406.87469 C 539.94328,442.84829 554.32097,480.77016 579.05686,511.35651 C 593.46628,517.73271 608.42984,539.15789 624.27429,525.06256 C 645.53863,513.71859 637.47696,486.21875 636.39612,466.47372 C 626.35462,432.8571 611.19786,399.9904 613.91751,364.1393 C 613.20278,333.08477 616.58837,302.4768 611.14227,271.51428"
       id="path2478" />
    <path
       style="fill:#e9daaf;fill-opacity:1;fill-rule:evenodd;stroke:none;stroke-width:7;stroke-linecap:butt;stroke-linejoin:miter;stroke-miterlimit:4;stroke-dasharray:none;stroke-opacity:1"
       d="M 353.55338,187.6716 C 367.10566,181.07558 389.01309,187.71805 397.49503,173.02438 C 399.85715,161.06377 401.08223,140.21728 404.68035,132.59314 C 420.41418,135.84262 419.9934,111.90374 431.93765,105.4359 C 442.01006,98.869498 454.78986,78.531453 439.54207,74.219121 C 419.17407,82.641097 396.68957,88.57864 383.73229,108.25673 C 366.5127,121.2585 355.27091,139.35155 350.42954,160.2787 C 337.46643,169.2016 332.7338,184.32392 353.55338,187.6716 z"
       id="path2484" />
    <path
       style="fill:#000000;fill-rule:evenodd;stroke:#000000;stroke-width:7;stroke-linecap:butt;stroke-linejoin:miter;stroke-miterlimit:4;stroke-dasharray:none;stroke-opacity:1"
       d="M 352.03815,184.13606 C 359.97633,163.81305 353.59503,134.69629 376.7869,122.51676 C 395.88132,116.69061 403.16719,135.47108 398.463,151.0119 C 398.44114,168.18492 386.59454,182.13334 368.62471,175.58833 C 360.88209,175.76415 354.10982,174.77832 352.03815,184.13606 z"
       id="path2480" />
    <path
       style="fill:#28170b;fill-rule:evenodd;stroke:#000000;stroke-width:7;stroke-linecap:butt;stroke-linejoin:miter;stroke-miterlimit:4;stroke-dasharray:none;stroke-opacity:1"
       d="M 378.30212,122.01169 C 386.00867,107.59137 413.42823,125.79504 410.46949,128.0726 C 397.74046,131.16283 390.46565,117.58541 378.30212,122.01169 z"
       id="path2482" />
    <path
       style="fill:#503e16;fill-opacity:1;fill-rule:evenodd;stroke:none;stroke-width:7;stroke-linecap:butt;stroke-linejoin:miter;stroke-miterlimit:4;stroke-dasharray:none;stroke-opacity:1"
       d="M 415.67776,131.60814 C 423.5755,155.26805 415.23648,186.02005 439.45164,202.01832 C 455.16533,212.30277 450.56268,234.7033 458.9503,250.07922 C 461.26913,264.27821 463.1588,278.87165 469.954,290.007 C 464.07584,307.37724 487.45695,324.49412 489.60243,300.02102 C 493.90421,280.89107 484.42726,261.95072 489.92398,242.72491 C 482.4946,206.36248 461.99462,173.75472 454.56866,137.85906 C 459.57527,121.34018 441.55043,114.73515 436.89099,100.79848 C 428.01308,108.63512 416.63612,119.54641 415.67776,131.60814 z"
       id="path2486" />
    <path
       style="fill:none;fill-rule:evenodd;stroke:#3b3310;stroke-width:7;stroke-linecap:butt;stroke-linejoin:miter;stroke-miterlimit:4;stroke-dasharray:none;stroke-opacity:1"
       d="M 190.91882,33.118263 C 179.36202,56.851466 172.90255,82.327516 175.76654,108.81474 C 173.874,141.45936 141.05393,160.3175 129.11156,189.2515 C 118.81351,213.75485 108.49893,241.08341 110.28159,268.03814 C 117.60678,296.96967 130.11349,327.33154 155.41134,345.40817 C 168.4465,353.87387 174.34202,373.74588 192.86022,366.80861 C 225.25642,364.60738 253.30357,383.17158 279.32703,399.6419 C 307.50598,410.11919 337.69926,419.40112 367.54248,410.2933 C 406.39404,407.42078 433.97388,375.61513 462.59091,352.51617 C 476.94331,341.05615 488.48927,323.74695 487.90369,304.8493"
       id="path2488" />
    <path
       style="fill:#28170b;fill-rule:evenodd;stroke:#3b3310;stroke-width:7;stroke-linecap:butt;stroke-linejoin:miter;stroke-miterlimit:4;stroke-dasharray:none;stroke-opacity:1"
       d="M 164.65625,252.3125 C 180.39578,272.20525 203.98295,289.91565 200.65119,318.2425 C 209.75713,337.93113 181.34847,347.42523 206.90252,348.50006 C 232.0939,357.36086 223.38457,353.03358 210.56897,337.65669 C 205.64074,325.43836 199.07061,302.00272 212.125,294.75 C 228.06498,291.97145 243.8794,283.55364 249.5,267.46875 C 229.15119,273.78559 205.05126,291.24649 186.41525,271.95759 C 177.25785,267.5235 171.54097,259.46172 164.65625,252.3125 z"
       id="path2490" />
    <path
       style="fill:none;fill-rule:evenodd;stroke:#3b3310;stroke-width:7;stroke-linecap:butt;stroke-linejoin:miter;stroke-miterlimit:4;stroke-dasharray:none;stroke-opacity:1"
       d="M 516.18793,886.69714 C 524.61395,852.73828 521.18486,816.90496 533.0604,783.50962 C 544.84083,729.25835 562.85881,676.49404 579.64574,623.80678 C 581.05322,614.79898 582.46069,605.79118 583.86816,596.78339"
       id="path2494" />
    <path
       style="fill:#deb787;fill-opacity:1;fill-rule:evenodd;stroke:none;stroke-width:7;stroke-linecap:butt;stroke-linejoin:miter;stroke-miterlimit:4;stroke-dasharray:none;stroke-opacity:1"
       d="M 115.15739,223.02695 C 97.109198,249.2243 83.223699,278.27205 64.818319,303.97521 C 50.770721,324.2594 26.70868,335.52811 19.052178,360.26835 C 5.0245797,391.63406 -3.9820521,425.45623 -9.0913725,459.40265 C 0.81102862,478.77267 23.988142,467.49114 38.460495,460.7571 C 61.094727,441.67193 71.086854,412.0123 89.399537,389.61256 C 99.22743,372.74597 109.06863,355.88919 123.23861,342.22495 C 128.35913,321.36081 124.9897,300.60773 115.15739,281.61578 C 108.57809,265.75963 109.32494,250.07853 113.97967,234.21532 C 114.37224,230.48586 114.76481,226.7564 115.15739,223.02695 z"
       id="path2496" />
    <path
       style="fill:#d3b55f;fill-opacity:1;fill-rule:evenodd;stroke:none;stroke-width:7;stroke-linecap:butt;stroke-linejoin:miter;stroke-miterlimit:4;stroke-dasharray:none;stroke-opacity:1"
       d="M 186.87822,40.189331 C 208.84518,32.082928 225.68726,15.508791 241.80581,-0.4064513 C 250.45492,-9.1721663 280.26806,-5.9746472 267.69043,9.8847561 C 266.21115,27.284148 254.70487,44.877141 235.36554,43.219791 C 231.60347,60.525442 223.32687,76.271951 207.08127,84.636047 C 192.85329,103.79325 173.01046,118.09148 163.1755,140.5949 C 144.69073,170.71954 123.30132,199.01748 110.40591,232.17359 C 90.434257,267.23362 76.608896,307.41896 43.901602,333.12359 C 29.659798,344.86714 16.75552,357.63531 13.551796,376.64095 C 7.2044204,403.27992 -7.3256923,429.3618 -6.222656,456.8971 C -1.1069472,473.64419 19.350094,473.17394 31.579284,464.5496 C 29.682011,462.28059 2.083178,479.0343 -9.170788,470.15113 C -29.629221,459.18078 -25.641137,430.76799 -20.841223,411.28877 C -17.565305,368.93001 -5.192176,327.98742 14.029175,290.19903 C 20.342342,274.83359 25.411009,259.21064 25.216073,242.74982 C 42.274424,201.46348 54.391824,152.84238 94.859619,127.93714 C 109.41882,113.48469 126.95427,101.43926 142.47821,89.241129 C 149.84283,70.384765 166.77296,56.489963 181.19667,43.030107 C 183.09052,42.083182 184.98437,41.136256 186.87822,40.189331 z"
       id="path2498" />
    <path
       style="fill:#d3ad5f;fill-opacity:1;fill-rule:evenodd;stroke:none;stroke-width:7;stroke-linecap:butt;stroke-linejoin:miter;stroke-miterlimit:4;stroke-dasharray:none;stroke-opacity:1"
       d="M 357.59399,205.85435 C 371.29471,201.84929 383.869,179.27472 397.88138,188.69667 C 415.07408,199.32352 427.49443,217.79244 434.03282,235.79066 C 430.65287,249.10132 416.42273,262.88883 401.37812,260.40259 C 387.94178,255.75662 383.73484,234.97608 370.88411,226.38309 C 365.44528,220.19818 359.53637,214.10667 357.59399,205.85435 z"
       id="path2500" />
  </g>
</svg>
